<?xml version="1.0" standalone="no"?>
<!DOCTYPE svg PUBLIC "-//W3C//DTD SVG 1.1//EN" "http://www.w3.org/Graphics/SVG/1.1/DTD/svg11.dtd">
<svg width="100%" height="100%" viewBox="0 0 150 113" version="1.1" xmlns="http://www.w3.org/2000/svg" xmlns:xlink="http://www.w3.org/1999/xlink" xml:space="preserve" style="fill-rule:evenodd;clip-rule:evenodd;stroke-linejoin:round;stroke-miterlimit:1.41421;">
    <g transform="matrix(0.75,0,0,0.75,-0,-0)">
        <g transform="matrix(1,0,0,1,-551,-650)">
            <path d="M751,650L551,650L551,800L751,800L751,650ZM747,796L555,796L555,654L747,654L747,796Z" style="fill:rgb(0,189,244);fill-rule:nonzero;"/>
        </g>
        <g transform="matrix(1,0,0,1,-551,-650)">
            <path d="M611,665L566,665L566,710L611,710L611,665ZM607,706L570,706L570,669L607,669L607,706Z" style="fill:rgb(0,189,244);fill-rule:nonzero;"/>
        </g>
        <g transform="matrix(1,0,0,1,-551,-650)">
            <path d="M603.84,706.755C602.931,704.712 598.498,703.36 595.551,702.091C592.604,700.822 593.007,700.052 592.902,699C592.871,698.706 592.863,698.374 592.864,698.048C593.725,697.333 594.469,696.464 594.926,695.282C594.926,695.282 594.954,695.212 594.962,695.19C595.075,694.89 595.123,694.021 595.209,693.702C595.884,693.569 596.278,692.852 596.428,692.189C596.58,691.921 596.897,691.259 596.823,690.508C596.73,689.542 596.331,689.096 595.882,688.909C595.883,688.851 595.883,688.796 595.883,688.741C595.883,688.572 595.88,688.402 595.876,688.233C596.003,687.34 596.113,686.456 596.113,685.951C596.113,685.291 595.971,683.984 595.523,682.784L595.531,682.792L594.943,681.537L594.84,681.031L594.335,680.889C594.307,680.864 594.279,680.841 594.251,680.818C594.313,680.695 593.82,680.337 594.244,680.192C594.062,679.939 593.166,680.085 593.166,680.085C593.166,680.085 593.031,679.213 592.812,679.097C592.698,679.256 592.25,679.207 591.883,679.179C590.494,678.996 591.353,677.814 589.921,677.682C589.927,677.123 589.916,676.674 589.916,676.674C589.916,676.674 589.187,677.283 588.919,677.045C588.757,676.482 589.138,675.775 589.138,675.775C589.138,675.775 588.09,675.787 587.84,676.829C587.62,676.528 587.875,676.065 588.049,675.833C586.719,676.283 586.293,677.283 585.762,677.923C585.692,678.008 585.498,677.626 585.522,677.391C585.002,677.634 584.686,679.035 584.454,679.134C584.221,679.234 583.744,678.837 583.71,678.678C583.222,678.712 582.073,681.062 582.073,681.062L580.94,682.195C580.94,682.195 581.513,682.152 581.542,682.359C581.571,682.566 580.702,684.102 580.702,684.102C580.702,684.102 581.172,683.832 581.221,683.986C581.27,684.141 581.212,684.039 581.207,684.065L580.523,685.89L581.001,685.706C580.943,686.373 580.916,687.027 580.916,687.617C580.916,688.184 580.938,688.622 580.974,688.98C580.585,689.199 580.259,689.647 580.176,690.508C580.103,691.259 580.419,691.921 580.571,692.189C580.724,692.863 581.128,693.594 581.826,693.709C581.912,694.029 582.055,694.814 582.168,695.116C582.176,695.136 582.183,695.155 582.191,695.175L582.201,695.201C582.667,696.399 583.379,697.27 584.229,697.988C584.233,698.333 584.224,698.688 584.193,699C584.087,700.052 584.397,700.822 581.45,702.091C578.504,703.36 574.07,704.712 573.161,706.755C572.252,708.798 572.615,710 572.615,710L604.382,710C604.382,710 604.749,708.798 603.84,706.755" style="fill:rgb(0,189,244);fill-rule:nonzero;"/>
        </g>
        <path d="M200,150L70,150L70,0L200,0L200,150ZM165,119L95,119L95,115L165,115L165,119ZM175,109L95,109L95,105L175,105L175,109ZM155,99L95,99L95,95L155,95L155,99ZM175,74L95,74L95,70L175,70L175,74ZM175,64L95,64L95,60L175,60L175,64ZM175,54L95,54L95,50L175,50L175,54ZM175,44L95,44L95,40L175,40L175,44ZM135,34L95,34L95,30L135,30L135,34Z" style="fill:rgb(0,189,244);"/>
        <g transform="matrix(1,0,0,1,-551,-650)">
            <rect x="566" y="736" width="4" height="4" style="fill:rgb(0,189,244);fill-rule:nonzero;"/>
        </g>
        <g transform="matrix(1,0,0,1,-551,-650)">
            <rect x="576" y="736" width="35" height="4" style="fill:rgb(0,189,244);fill-rule:nonzero;"/>
        </g>
        <g transform="matrix(1,0,0,1,-551,-650)">
            <rect x="566" y="726" width="4" height="4" style="fill:rgb(0,189,244);fill-rule:nonzero;"/>
        </g>
        <g transform="matrix(1,0,0,1,-551,-650)">
            <rect x="576" y="726" width="35" height="4" style="fill:rgb(0,189,244);fill-rule:nonzero;"/>
        </g>
        <g transform="matrix(1,0,0,1,-551,-650)">
            <rect x="566" y="746" width="4" height="4" style="fill:rgb(0,189,244);fill-rule:nonzero;"/>
        </g>
        <g transform="matrix(1,0,0,1,-551,-650)">
            <rect x="576" y="746" width="35" height="4" style="fill:rgb(0,189,244);fill-rule:nonzero;"/>
        </g>
    </g>
</svg>
