<?xml version="1.0" standalone="no"?>
<!DOCTYPE svg PUBLIC "-//W3C//DTD SVG 1.1//EN" "http://www.w3.org/Graphics/SVG/1.1/DTD/svg11.dtd">
<svg width="100%" height="100%" viewBox="0 0 150 113" version="1.1" xmlns="http://www.w3.org/2000/svg" xmlns:xlink="http://www.w3.org/1999/xlink" xml:space="preserve" style="fill-rule:evenodd;clip-rule:evenodd;stroke-linejoin:round;stroke-miterlimit:1.41421;">
    <g transform="matrix(0.75,0,0,0.75,-0,-0)">
        <g transform="matrix(1,0,0,1,-301,-450)">
            <rect x="341" y="481" width="25" height="4" style="fill:rgb(0,189,244);fill-rule:nonzero;"/>
        </g>
        <path d="M0,41L0,0L200,0L200,41L80,41L80,21L25,21L25,41L0,41ZM160,35L135,35L135,31L160,31L160,35ZM120,35L95,35L95,31L120,31L120,35Z" style="fill:rgb(0,189,244);"/>
        <g transform="matrix(1,0,0,1,-301,-450)">
            <rect x="386" y="520" width="85" height="4" style="fill:rgb(0,189,244);fill-rule:nonzero;"/>
        </g>
        <g transform="matrix(1,0,0,1,-301,-450)">
            <rect x="386" y="530" width="65" height="4" style="fill:rgb(0,189,244);fill-rule:nonzero;"/>
        </g>
        <g transform="matrix(1,0,0,1,-301,-450)">
            <rect x="386" y="540" width="85" height="4" style="fill:rgb(0,189,244);fill-rule:nonzero;"/>
        </g>
        <g transform="matrix(1,0,0,1,-301,-450)">
            <rect x="386" y="560" width="85" height="4" style="fill:rgb(0,189,244);fill-rule:nonzero;"/>
        </g>
        <g transform="matrix(1,0,0,1,-301,-450)">
            <rect x="386" y="550" width="65" height="4" style="fill:rgb(0,189,244);fill-rule:nonzero;"/>
        </g>
        <g transform="matrix(1,0,0,1,-301,-450)">
            <path d="M371,520L331,520L331,560L371,560L371,520ZM367,556L335,556L335,524L367,524L367,556Z" style="fill:rgb(0,189,244);fill-rule:nonzero;"/>
        </g>
        <g transform="matrix(1,0,0,1,-301,-450)">
            <path d="M501,450L301,450L301,600L501,600L501,450ZM497,596L305,596L305,454L497,454L497,596Z" style="fill:rgb(0,189,244);fill-rule:nonzero;"/>
        </g>
    </g>
</svg>
