<?xml version="1.0" standalone="no"?>
<!DOCTYPE svg PUBLIC "-//W3C//DTD SVG 1.1//EN" "http://www.w3.org/Graphics/SVG/1.1/DTD/svg11.dtd">
<svg width="100%" height="100%" viewBox="0 0 200 150" version="1.1" xmlns="http://www.w3.org/2000/svg" xmlns:xlink="http://www.w3.org/1999/xlink" xml:space="preserve" style="fill-rule:evenodd;clip-rule:evenodd;stroke-linejoin:round;stroke-miterlimit:1.41421;">
    <g transform="matrix(1,0,0,1,-801,-650)">
        <path d="M1001,650L801,650L801,800L1001,800L1001,650ZM997,796L805,796L805,654L997,654L997,796Z" style="fill:rgb(0,189,244);fill-rule:nonzero;"/>
    </g>
    <g transform="matrix(1,0,0,1,-801,-650)">
        <path d="M1001,725L801,725L801,800L1001,800L1001,725ZM997,796L805,796L805,729L997,729L997,796Z" style="fill:rgb(0,189,244);fill-rule:nonzero;"/>
    </g>
    <g transform="matrix(1,0,0,1,-801,-650)">
        <rect x="871" y="689" width="100" height="4" style="fill:rgb(0,189,244);fill-rule:nonzero;"/>
    </g>
    <g transform="matrix(1,0,0,1,-801,-650)">
        <rect x="871" y="679" width="50" height="4" style="fill:rgb(0,189,244);fill-rule:nonzero;"/>
    </g>
    <g transform="matrix(1,0,0,1,-801,-650)">
        <rect x="871" y="699" width="80" height="4" style="fill:rgb(0,189,244);fill-rule:nonzero;"/>
    </g>
    <g transform="matrix(1,0,0,1,-801,-650)">
        <path d="M843.5,673.5C833.835,673.5 826,681.335 826,691C826,700.665 833.835,708.5 843.5,708.5C853.165,708.5 861,700.665 861,691C861,681.335 853.165,673.5 843.5,673.5M843.5,676.5C851.495,676.5 858,683.005 858,691C858,698.995 851.495,705.5 843.5,705.5C835.505,705.5 829,698.995 829,691C829,683.005 835.505,676.5 843.5,676.5" style="fill:rgb(0,189,244);fill-rule:nonzero;"/>
    </g>
    <g transform="matrix(1,0,0,1,-801,-650)">
        <path d="M848.223,698.273C846.343,697.463 846.6,696.972 846.532,696.301C846.513,696.113 846.507,695.901 846.509,695.693C847.058,695.237 847.532,694.682 847.825,693.928C847.825,693.928 847.843,693.883 847.848,693.869C847.92,693.678 847.95,693.124 848.005,692.92C848.436,692.835 848.687,692.377 848.783,691.954C848.88,691.783 849.082,691.361 849.035,690.882C848.976,690.266 848.721,689.981 848.434,689.861C848.435,689.824 848.435,689.789 848.435,689.754C848.435,689.646 848.433,689.538 848.431,689.43C848.512,688.86 848.582,688.296 848.582,687.974C848.582,687.553 848.491,686.719 848.205,685.953L848.211,685.958L847.835,685.157L847.77,684.835L847.447,684.744C847.43,684.728 847.412,684.713 847.394,684.699C847.433,684.62 847.118,684.391 847.389,684.299C847.273,684.138 846.7,684.231 846.7,684.231C846.7,684.231 846.615,683.675 846.475,683.6C846.403,683.702 846.117,683.671 845.883,683.653C844.996,683.536 845.544,682.782 844.631,682.698C844.634,682.341 844.627,682.054 844.627,682.054C844.627,682.054 844.163,682.443 843.992,682.291C843.887,681.932 844.131,681.481 844.131,681.481C844.131,681.481 843.462,681.488 843.303,682.153C843.163,681.961 843.325,681.665 843.436,681.518C842.588,681.805 842.316,682.443 841.977,682.851C841.932,682.905 841.808,682.662 841.823,682.512C841.492,682.667 841.291,683.561 841.142,683.624C840.994,683.688 840.689,683.434 840.668,683.333C840.356,683.355 839.623,684.855 839.623,684.855L838.9,685.577C838.9,685.577 839.266,685.55 839.284,685.682C839.303,685.814 838.748,686.794 838.748,686.794C838.748,686.794 839.048,686.622 839.079,686.721C839.11,686.819 839.074,686.754 839.071,686.771L838.634,687.935L838.939,687.818C838.902,688.243 838.884,688.66 838.884,689.037C838.884,689.399 838.899,689.679 838.921,689.907C838.674,690.047 838.465,690.333 838.412,690.882C838.366,691.361 838.568,691.783 838.664,691.954C838.762,692.385 839.02,692.851 839.465,692.924C839.52,693.129 839.611,693.629 839.684,693.822C839.688,693.835 839.693,693.847 839.698,693.86L839.705,693.876C840.002,694.641 840.457,695.197 840.999,695.655C841.001,695.875 840.996,696.101 840.976,696.301C840.908,696.972 841.106,697.463 839.226,698.273C837.346,699.083 834.516,699.946 833.936,701.249C833.84,701.464 833.768,701.739 833.712,702.042C836.288,704.437 839.739,705.903 843.533,705.903C847.486,705.903 851.065,704.313 853.672,701.74C853.627,701.558 853.575,701.39 853.512,701.249C852.933,699.946 850.103,699.083 848.223,698.273" style="fill:rgb(0,189,244);fill-rule:nonzero;"/>
    </g>
    <g transform="matrix(1,0,0,1,-801,-650)">
        <rect x="956" y="679" width="15" height="4" style="fill:rgb(0,189,244);fill-rule:nonzero;"/>
    </g>
    <g transform="matrix(1,0,0,1,-801,-650)">
        <rect x="871" y="760.5" width="100" height="4" style="fill:rgb(0,189,244);fill-rule:nonzero;"/>
    </g>
    <g transform="matrix(1,0,0,1,-801,-650)">
        <rect x="871" y="750.5" width="40" height="4" style="fill:rgb(0,189,244);fill-rule:nonzero;"/>
    </g>
    <g transform="matrix(1,0,0,1,-801,-650)">
        <rect x="956" y="750.5" width="15" height="4" style="fill:rgb(0,189,244);fill-rule:nonzero;"/>
    </g>
    <g transform="matrix(1,0,0,1,-801,-650)">
        <rect x="871" y="770.5" width="90" height="4" style="fill:rgb(0,189,244);fill-rule:nonzero;"/>
    </g>
    <g transform="matrix(1,0,0,1,-801,-650)">
        <path d="M843.5,745C833.835,745 826,752.835 826,762.5C826,772.165 833.835,780 843.5,780C853.165,780 861,772.165 861,762.5C861,752.835 853.165,745 843.5,745M843.5,748C851.495,748 858,754.505 858,762.5C858,770.495 851.495,777 843.5,777C835.505,777 829,770.495 829,762.5C829,754.505 835.505,748 843.5,748" style="fill:rgb(0,189,244);fill-rule:nonzero;"/>
    </g>
    <g transform="matrix(1,0,0,1,-801,-650)">
        <path d="M843.5,780C847.049,780 850.346,778.936 853.104,777.121C853.086,774.395 853,771.623 852.738,771.033C852.191,769.803 849.521,768.989 847.746,768.224C845.972,767.46 846.214,766.997 846.15,766.363C846.147,766.324 846.143,766.285 846.141,766.244C846.517,765.917 846.851,765.516 847.127,765.06C848.228,765.318 849.462,765.295 850.541,764.513C848.818,762.791 849.793,760.498 848.55,756.693C847.492,753.458 843.157,753.617 842.598,754.754C840.299,753.941 838.564,755.029 837.926,758.456C837.192,762.392 838.182,762.806 836.459,764.528C837.656,765.212 838.763,765.125 839.742,764.793C840.051,765.375 840.451,765.88 840.914,766.274C840.912,766.304 840.909,766.333 840.906,766.363C840.843,766.997 841.029,767.46 839.255,768.224C837.481,768.989 834.81,769.803 834.263,771.033C834.001,771.623 833.914,774.395 833.896,777.121C836.654,778.936 839.951,780 843.5,780" style="fill:rgb(0,189,244);fill-rule:nonzero;"/>
    </g>
</svg>
