<?xml version="1.0" standalone="no"?>
<!DOCTYPE svg PUBLIC "-//W3C//DTD SVG 1.1//EN" "http://www.w3.org/Graphics/SVG/1.1/DTD/svg11.dtd">
<svg width="100%" height="100%" viewBox="0 0 150 113" version="1.1" xmlns="http://www.w3.org/2000/svg" xmlns:xlink="http://www.w3.org/1999/xlink" xml:space="preserve" style="fill-rule:evenodd;clip-rule:evenodd;stroke-linejoin:round;stroke-miterlimit:1.41421;">
    <g transform="matrix(0.75,0,0,0.75,-0,-0)">
        <g transform="matrix(1,0,0,1,-51,-250)">
            <path d="M251,250L51,250L51,400L251,400L251,250ZM247,396L55,396L55,254L247,254L247,396Z" style="fill:rgb(0,189,244);fill-rule:nonzero;"/>
        </g>
        <g transform="matrix(1,0,0,1,-51,-250)">
            <rect x="66" y="265" width="35" height="9.5" style="fill:rgb(0,189,244);fill-rule:nonzero;"/>
        </g>
        <g transform="matrix(1,0,0,1,-51,-288)">
            <rect x="66" y="345" width="4" height="4" style="fill:rgb(0,189,244);fill-rule:nonzero;"/>
        </g>
        <g transform="matrix(1,0,0,1,-51,-288)">
            <rect x="76" y="345" width="25" height="4" style="fill:rgb(0,189,244);fill-rule:nonzero;"/>
        </g>
        <g transform="matrix(1,0,0,1,-51,-250)">
            <rect x="66" y="285" width="35" height="4" style="fill:rgb(0,189,244);fill-rule:nonzero;"/>
        </g>
        <g transform="matrix(1,0,0,1,-51,-250)">
            <rect x="66" y="295" width="35" height="4" style="fill:rgb(0,189,244);fill-rule:nonzero;"/>
        </g>
        <g transform="matrix(1,0,0,1,-51,-288)">
            <rect x="66" y="355" width="4" height="4" style="fill:rgb(0,189,244);fill-rule:nonzero;"/>
        </g>
        <g transform="matrix(1,0,0,1,-51,-288)">
            <rect x="76" y="355" width="25" height="4" style="fill:rgb(0,189,244);fill-rule:nonzero;"/>
        </g>
        <g transform="matrix(1,0,0,1,-51,-288)">
            <rect x="66" y="365" width="4" height="4" style="fill:rgb(0,189,244);fill-rule:nonzero;"/>
        </g>
        <g transform="matrix(1,0,0,1,-51,-288)">
            <rect x="76" y="365" width="25" height="4" style="fill:rgb(0,189,244);fill-rule:nonzero;"/>
        </g>
        <g transform="matrix(1,0,0,1,-51,-288)">
            <rect x="66" y="375" width="4" height="4" style="fill:rgb(0,189,244);fill-rule:nonzero;"/>
        </g>
        <g transform="matrix(1,0,0,1,-51,-288)">
            <rect x="76" y="374.5" width="25" height="4" style="fill:rgb(0,189,244);fill-rule:nonzero;"/>
        </g>
        <g transform="matrix(1,0,0,1,-51,-250)">
            <path d="M251,250L111,250L111,400L251,400L251,250ZM247,396L115,396L115,254L247,254L247,396Z" style="fill:rgb(0,189,244);fill-rule:nonzero;"/>
        </g>
        <g transform="matrix(1.51429,0,0,1,3.55714,-250)">
            <rect x="66" y="265" width="35" height="9.5" style="fill:rgb(0,189,244);fill-rule:nonzero;"/>
        </g>
        <g transform="matrix(1,0,0,1,-298.5,-480)">
            <rect x="386" y="520" width="85" height="4" style="fill:rgb(0,189,244);fill-rule:nonzero;"/>
        </g>
        <g transform="matrix(1,0,0,1,-298.5,-480)">
            <rect x="386" y="530" width="65" height="4" style="fill:rgb(0,189,244);fill-rule:nonzero;"/>
        </g>
        <g transform="matrix(1,0,0,1,-298.5,-480)">
            <rect x="386" y="540" width="85" height="4" style="fill:rgb(0,189,244);fill-rule:nonzero;"/>
        </g>
        <g transform="matrix(1,0,0,1,-298.5,-480)">
            <rect x="386" y="550" width="65" height="4" style="fill:rgb(0,189,244);fill-rule:nonzero;"/>
        </g>
        <g transform="matrix(1,0,0,1,-298.5,-432)">
            <rect x="386" y="520" width="85" height="4" style="fill:rgb(0,189,244);fill-rule:nonzero;"/>
        </g>
        <g transform="matrix(1,0,0,1,-298.5,-432)">
            <rect x="386" y="530" width="65" height="4" style="fill:rgb(0,189,244);fill-rule:nonzero;"/>
        </g>
        <g transform="matrix(1,0,0,1,-298.5,-432)">
            <rect x="386" y="540" width="85" height="4" style="fill:rgb(0,189,244);fill-rule:nonzero;"/>
        </g>
        <g transform="matrix(1,0,0,1,-298.5,-432)">
            <rect x="386" y="560" width="85" height="4" style="fill:rgb(0,189,244);fill-rule:nonzero;"/>
        </g>
        <g transform="matrix(1,0,0,1,-298.5,-432)">
            <rect x="386" y="550" width="65" height="4" style="fill:rgb(0,189,244);fill-rule:nonzero;"/>
        </g>
    </g>
</svg>
