<?xml version="1.0" standalone="no"?><!DOCTYPE svg PUBLIC "-//W3C//DTD SVG 1.1//EN" "http://www.w3.org/Graphics/SVG/1.1/DTD/svg11.dtd"><svg width="100%" height="100%" viewBox="0 0 25 25" version="1.1" xmlns="http://www.w3.org/2000/svg" xmlns:xlink="http://www.w3.org/1999/xlink" xml:space="preserve" style="fill-rule:evenodd;clip-rule:evenodd;stroke-linecap:round;stroke-linejoin:round;stroke-miterlimit:10;"><path d="M21.019,12.394c0,4.764 -3.862,8.625 -8.625,8.625c-4.764,0 -8.625,-3.861 -8.625,-8.625c0,-4.764 3.861,-8.625 8.625,-8.625c4.763,0 8.625,3.861 8.625,8.625Z" style="fill:#000;fill-opacity:0;fill-rule:nonzero;stroke-width:0.45px;stroke:#fff;"/><path d="M13.519,12.394c0,0.621 -0.504,1.125 -1.125,1.125c-0.622,0 -1.125,-0.504 -1.125,-1.125c0,-0.621 0.503,-1.125 1.125,-1.125c0.621,0 1.125,0.504 1.125,1.125Z" style="fill:#000;fill-opacity:0;fill-rule:nonzero;stroke-width:0.45px;stroke:#fff;"/><path d="M13.189,11.598l3.712,-3.711" style="fill:#000;fill-opacity:0;fill-rule:nonzero;stroke-width:0.45px;stroke:#fff;"/><path d="M5.227,12.019l1.5,0" style="fill:#000;fill-opacity:0;fill-rule:nonzero;stroke-width:0.45px;stroke:#fff;"/><path d="M5.81,15.12l1.387,-0.574" style="fill:#000;fill-opacity:0;fill-rule:nonzero;stroke-width:0.45px;stroke:#fff;"/><path d="M18.976,15.12l-1.386,-0.574" style="fill:#000;fill-opacity:0;fill-rule:nonzero;stroke-width:0.45px;stroke:#fff;"/><path d="M19.518,12.019l-1.499,-0.001" style="fill:#000;fill-opacity:0;fill-rule:nonzero;stroke-width:0.45px;stroke:#fff;"/><path d="M18.976,9.668l-1.386,0.573" style="fill:#000;fill-opacity:0;fill-rule:nonzero;stroke-width:0.45px;stroke:#fff;"/><path d="M15.593,5.811l-0.575,1.386" style="fill:#000;fill-opacity:0;fill-rule:nonzero;stroke-width:0.45px;stroke:#fff;"/><path d="M12.769,5.408l0,1.5" style="fill:#000;fill-opacity:0;fill-rule:nonzero;stroke-width:0.45px;stroke:#fff;"/><path d="M9.668,5.811l0.573,1.386" style="fill:#000;fill-opacity:0;fill-rule:nonzero;stroke-width:0.45px;stroke:#fff;"/><path d="M7.356,7.355l1.06,1.061" style="fill:#000;fill-opacity:0;fill-rule:nonzero;stroke-width:0.45px;stroke:#fff;"/><path d="M5.811,9.667l1.386,0.574" style="fill:#000;fill-opacity:0;fill-rule:nonzero;stroke-width:0.45px;stroke:#fff;"/><rect x="9.019" y="15.769" width="6.75" height="2.25" style="fill:#000;fill-opacity:0;fill-rule:nonzero;stroke-width:0.45px;stroke:#fff;"/></svg>