<?xml version="1.0" standalone="no"?><!DOCTYPE svg PUBLIC "-//W3C//DTD SVG 1.1//EN" "http://www.w3.org/Graphics/SVG/1.1/DTD/svg11.dtd"><svg width="100%" height="100%" viewBox="0 0 24 23" version="1.1" xmlns="http://www.w3.org/2000/svg" xmlns:xlink="http://www.w3.org/1999/xlink" xml:space="preserve" style="fill-rule:evenodd;clip-rule:evenodd;stroke-linejoin:round;stroke-miterlimit:10;"><path d="M17.613,14.268c0,-4.476 -3.094,-2.648 -5.625,-2.648c-2.531,0 -5.625,-1.782 -5.625,2.648c0,1.45 1.175,2.625 2.625,2.625l6,0c1.451,0 2.625,-1.175 2.625,-2.625Z" style="fill:#000;fill-opacity:0;fill-rule:nonzero;stroke-width:0.52px;stroke:#fff;"/><path d="M19.135,9.179l0.024,0.017c0,0 1.985,-3.429 -0.452,-5.427c-1.5,0 -3.776,2.491 -3.776,2.491l-0.197,-0.044c-1.869,-0.549 -3.769,-0.512 -5.641,0.029c-0.012,-0.013 -2.296,-2.476 -3.792,-2.476c-2.381,1.951 -0.548,5.259 -0.462,5.412c-0.762,1.145 -1.179,2.575 -1.046,4.308c0.181,2.343 2.136,4.905 4.487,4.905l7.416,0c2.352,0 4.306,-2.562 4.486,-4.905c0.134,-1.734 -0.282,-3.166 -1.047,-4.31Z" style="fill:#000;fill-opacity:0;fill-rule:nonzero;stroke-width:0.45px;stroke:#fff;"/><path d="M15.379,14.268c0,0.622 -0.336,1.125 -0.75,1.125c-0.414,0 -0.75,-0.503 -0.75,-1.125c0,-0.621 0.336,-1.125 0.75,-1.125c0.414,0 0.75,0.504 0.75,1.125Z" style="fill:#000;fill-opacity:0;fill-rule:nonzero;stroke-width:0.52px;stroke:#fff;"/><path d="M10.129,14.268c0,0.622 -0.336,1.125 -0.75,1.125c-0.414,0 -0.75,-0.503 -0.75,-1.125c0,-0.621 0.336,-1.125 0.75,-1.125c0.414,0 0.75,0.504 0.75,1.125Z" style="fill:#000;fill-opacity:0;fill-rule:nonzero;stroke-width:0.52px;stroke:#fff;"/></svg>