<?xml version="1.0" standalone="no"?><!DOCTYPE svg PUBLIC "-//W3C//DTD SVG 1.1//EN" "http://www.w3.org/Graphics/SVG/1.1/DTD/svg11.dtd"><svg width="100%" height="100%" viewBox="0 0 25 23" version="1.1" xmlns="http://www.w3.org/2000/svg" xmlns:xlink="http://www.w3.org/1999/xlink" xml:space="preserve" style="fill-rule:evenodd;clip-rule:evenodd;stroke-linecap:round;stroke-linejoin:round;stroke-miterlimit:10;"><path d="M12.019,12.394l-8.25,-3.75l0,6l8.25,3.75l0,-6Z" style="fill:#000;fill-opacity:0;fill-rule:nonzero;stroke-width:0.45px;stroke:#fff;"/><path d="M21.019,8.644l-9,3.75l0,6l9,-3.75l0,-6Z" style="fill:#000;fill-opacity:0;fill-rule:nonzero;stroke-width:0.45px;stroke:#fff;"/><path d="M14.644,9.019c0,0.621 -1.008,1.125 -2.25,1.125c-1.243,0 -2.25,-0.504 -2.25,-1.125c0,-0.621 1.007,-1.125 2.25,-1.125c1.242,0 2.25,0.504 2.25,1.125Z" style="fill:#000;fill-opacity:0;fill-rule:nonzero;stroke-width:0.45px;stroke:#fff;"/><path d="M14.644,4.894c0,0.621 -1.008,1.125 -2.25,1.125c-1.243,0 -2.25,-0.504 -2.25,-1.125c0,-0.621 1.007,-1.125 2.25,-1.125c1.242,0 2.25,0.504 2.25,1.125Z" style="fill:#000;fill-opacity:0;fill-rule:nonzero;stroke-width:0.45px;stroke:#fff;"/><path d="M19.894,7.144c0,0.621 -1.008,1.125 -2.25,1.125c-1.243,0 -2.25,-0.504 -2.25,-1.125c0,-0.621 1.007,-1.125 2.25,-1.125c1.242,0 2.25,0.504 2.25,1.125Z" style="fill:#000;fill-opacity:0;fill-rule:nonzero;stroke-width:0.45px;stroke:#fff;"/><path d="M9.769,7.144c0,0.621 -1.008,1.125 -2.25,1.125c-1.243,0 -2.25,-0.504 -2.25,-1.125c0,-0.621 1.007,-1.125 2.25,-1.125c1.242,0 2.25,0.504 2.25,1.125Z" style="fill:#000;fill-opacity:0;fill-rule:nonzero;stroke-width:0.45px;stroke:#fff;"/><path d="M5.699,7.804l-1.93,0.84" style="fill:#000;fill-opacity:0;fill-rule:nonzero;stroke-width:0.45px;stroke:#fff;"/><path d="M10.697,5.632l-1.617,0.703" style="fill:#000;fill-opacity:0;fill-rule:nonzero;stroke-width:0.45px;stroke:#fff;"/><path d="M15.914,6.424l-1.825,-0.793" style="fill:#000;fill-opacity:0;fill-rule:nonzero;stroke-width:0.45px;stroke:#fff;"/><path d="M21.019,8.644l-1.725,-0.75" style="fill:#000;fill-opacity:0;fill-rule:nonzero;stroke-width:0.45px;stroke:#fff;"/></svg>