<?xml version="1.0" standalone="no"?>
<!DOCTYPE svg PUBLIC "-//W3C//DTD SVG 1.1//EN" "http://www.w3.org/Graphics/SVG/1.1/DTD/svg11.dtd">
<svg width="100%" height="100%" viewBox="0 0 150 113" version="1.1" xmlns="http://www.w3.org/2000/svg" xmlns:xlink="http://www.w3.org/1999/xlink" xml:space="preserve" style="fill-rule:evenodd;clip-rule:evenodd;stroke-linejoin:round;stroke-miterlimit:1.41421;">
    <g transform="matrix(0.75,0,0,0.75,-0,-0)">
        <g transform="matrix(1,0,0,1,-801,-1250)">
            <path d="M1001,1250L801,1250L801,1400L1001,1400L1001,1250ZM997,1396L805,1396L805,1254L997,1254L997,1396Z" style="fill:rgb(0,189,244);fill-rule:nonzero;"/>
        </g>
        <g transform="matrix(1,0,0,1,-801,-1250)">
            <rect x="876" y="1265" width="50" height="4" style="fill:rgb(0,189,244);fill-rule:nonzero;"/>
        </g>
        <g transform="matrix(1,0,0,1,-801,-1250)">
            <rect x="826" y="1300" width="22" height="4" style="fill:rgb(0,189,244);fill-rule:nonzero;"/>
        </g>
        <g transform="matrix(1,0,0,1,-801,-1250)">
            <rect x="826" y="1290" width="22" height="4" style="fill:rgb(0,189,244);fill-rule:nonzero;"/>
        </g>
        <g transform="matrix(1,0,0,1,-801,-1250)">
            <rect x="826" y="1310" width="22" height="4" style="fill:rgb(0,189,244);fill-rule:nonzero;"/>
        </g>
        <g transform="matrix(1,0,0,1,-801,-1250)">
            <rect x="826" y="1320" width="22" height="4" style="fill:rgb(0,189,244);fill-rule:nonzero;"/>
        </g>
        <g transform="matrix(1,0,0,1,-801,-1250)">
            <rect x="826" y="1330" width="22" height="4" style="fill:rgb(0,189,244);fill-rule:nonzero;"/>
        </g>
        <g transform="matrix(1,0,0,1,-801,-1250)">
            <rect x="826" y="1340" width="22" height="4" style="fill:rgb(0,189,244);fill-rule:nonzero;"/>
        </g>
        <g transform="matrix(1,0,0,1,-801,-1250)">
            <rect x="826" y="1350" width="22" height="4" style="fill:rgb(0,189,244);fill-rule:nonzero;"/>
        </g>
        <g transform="matrix(1,0,0,1,-801,-1250)">
            <rect x="826" y="1360" width="22" height="4" style="fill:rgb(0,189,244);fill-rule:nonzero;"/>
        </g>
        <g transform="matrix(1,0,0,1,-801,-1250)">
            <rect x="954" y="1300" width="22" height="4" style="fill:rgb(0,189,244);fill-rule:nonzero;"/>
        </g>
        <g transform="matrix(1,0,0,1,-801,-1250)">
            <rect x="954" y="1290" width="22" height="4" style="fill:rgb(0,189,244);fill-rule:nonzero;"/>
        </g>
        <g transform="matrix(1,0,0,1,-801,-1250)">
            <rect x="954" y="1310" width="22" height="4" style="fill:rgb(0,189,244);fill-rule:nonzero;"/>
        </g>
        <g transform="matrix(1,0,0,1,-801,-1250)">
            <rect x="954" y="1320" width="22" height="4" style="fill:rgb(0,189,244);fill-rule:nonzero;"/>
        </g>
        <g transform="matrix(1,0,0,1,-801,-1250)">
            <rect x="954" y="1330" width="22" height="4" style="fill:rgb(0,189,244);fill-rule:nonzero;"/>
        </g>
        <g transform="matrix(1,0,0,1,-801,-1250)">
            <rect x="954" y="1340" width="22" height="4" style="fill:rgb(0,189,244);fill-rule:nonzero;"/>
        </g>
        <g transform="matrix(1,0,0,1,-801,-1250)">
            <rect x="954" y="1350" width="22" height="4" style="fill:rgb(0,189,244);fill-rule:nonzero;"/>
        </g>
        <g transform="matrix(1,0,0,1,-801,-1250)">
            <rect x="954" y="1360" width="22" height="4" style="fill:rgb(0,189,244);fill-rule:nonzero;"/>
        </g>
        <g transform="matrix(1,0,0,1,-801,-1250)">
            <rect x="826" y="1370" width="22" height="4" style="fill:rgb(0,189,244);fill-rule:nonzero;"/>
        </g>
        <g transform="matrix(1,0,0,1,-801,-1250)">
            <rect x="954" y="1370" width="22" height="4" style="fill:rgb(0,189,244);fill-rule:nonzero;"/>
        </g>
        <g transform="matrix(1,0,0,1,-801,-1250)">
            <path d="M943.5,1282.5L858.5,1282.5C855.739,1282.5 853.5,1284.74 853.5,1287.5L853.5,1375C853.5,1377.76 855.739,1380 858.5,1380L943.5,1380C946.261,1380 948.5,1377.76 948.5,1375L948.5,1287.5C948.5,1284.74 946.261,1282.5 943.5,1282.5M943.5,1286.5C944.051,1286.5 944.5,1286.95 944.5,1287.5L944.5,1375C944.5,1375.55 944.051,1376 943.5,1376L858.5,1376C857.949,1376 857.5,1375.55 857.5,1375L857.5,1287.5C857.5,1286.95 857.949,1286.5 858.5,1286.5L943.5,1286.5" style="fill:rgb(0,189,244);fill-rule:nonzero;"/>
        </g>
        <g transform="matrix(1,0,0,1,-801,-1250)">
            <rect x="863.5" y="1315" width="15" height="15" style="fill:rgb(0,189,244);fill-rule:nonzero;"/>
        </g>
        <g transform="matrix(1,0,0,1,-801,-1250)">
            <rect x="883.5" y="1315" width="15" height="15" style="fill:rgb(0,189,244);fill-rule:nonzero;"/>
        </g>
        <g transform="matrix(1,0,0,1,-801,-1250)">
            <rect x="903.5" y="1315" width="15" height="15" style="fill:rgb(0,189,244);fill-rule:nonzero;"/>
        </g>
        <g transform="matrix(1,0,0,1,-801,-1250)">
            <rect x="923.5" y="1315" width="15" height="15" style="fill:rgb(0,189,244);fill-rule:nonzero;"/>
        </g>
        <g transform="matrix(1,0,0,1,-801,-1250)">
            <rect x="863.5" y="1335" width="15" height="15" style="fill:rgb(0,189,244);fill-rule:nonzero;"/>
        </g>
        <g transform="matrix(1,0,0,1,-801,-1250)">
            <rect x="883.5" y="1335" width="15" height="15" style="fill:rgb(0,189,244);fill-rule:nonzero;"/>
        </g>
        <g transform="matrix(1,0,0,1,-801,-1250)">
            <path d="M918.5,1335L903.5,1335L903.5,1350L918.5,1350L918.5,1335ZM914.5,1346L907.5,1346L907.5,1339L914.5,1339L914.5,1346Z" style="fill:rgb(0,189,244);fill-rule:nonzero;"/>
        </g>
        <g transform="matrix(1,0,0,1,-801,-1250)">
            <rect x="923.5" y="1335" width="15" height="15" style="fill:rgb(0,189,244);fill-rule:nonzero;"/>
        </g>
        <g transform="matrix(1,0,0,1,-801,-1250)">
            <rect x="863.5" y="1355" width="15" height="15" style="fill:rgb(0,189,244);fill-rule:nonzero;"/>
        </g>
        <g transform="matrix(1,0,0,1,-801,-1250)">
            <rect x="883.5" y="1355" width="15" height="15" style="fill:rgb(0,189,244);fill-rule:nonzero;"/>
        </g>
        <g transform="matrix(1,0,0,1,-801,-1250)">
            <rect x="903.5" y="1355" width="15" height="15" style="fill:rgb(0,189,244);fill-rule:nonzero;"/>
        </g>
        <g transform="matrix(1,0,0,1,-801,-1250)">
            <rect x="923.5" y="1355" width="15" height="15" style="fill:rgb(0,189,244);fill-rule:nonzero;"/>
        </g>
        <g transform="matrix(1,0,0,1,-801,-1250)">
            <path d="M946,1305L856,1305" style="fill:rgb(0,189,244);fill-rule:nonzero;"/>
            <rect x="856" y="1303" width="90" height="4" style="fill:rgb(0,189,244);"/>
        </g>
        <g transform="matrix(1,0,0,1,-801,-1250)">
            <path d="M868.485,1295L871,1292.49L869.694,1291.18L865.872,1295L869.694,1298.82L871,1297.52L868.485,1295Z" style="fill:rgb(0,189,244);fill-rule:nonzero;"/>
        </g>
        <g transform="matrix(1,0,0,1,-801,-1250)">
            <path d="M933.515,1295L931,1292.49L932.306,1291.18L936.128,1295L932.306,1298.82L931,1297.52L933.515,1295Z" style="fill:rgb(0,189,244);fill-rule:nonzero;"/>
        </g>
        <g transform="matrix(1,0,0,1,-801,-1250)">
            <rect x="891" y="1292.76" width="20" height="4" style="fill:rgb(0,189,244);fill-rule:nonzero;"/>
        </g>
        <g transform="matrix(1,0,0,1,-801,-1250)">
            <path d="M892.833,1283.5L901,1275.33L909.167,1283.5" style="fill:rgb(0,189,244);fill-rule:nonzero;"/>
        </g>
    </g>
</svg>
