<?xml version="1.0" standalone="no"?>
<!DOCTYPE svg PUBLIC "-//W3C//DTD SVG 1.1//EN" "http://www.w3.org/Graphics/SVG/1.1/DTD/svg11.dtd">
<svg width="100%" height="100%" viewBox="0 0 150 113" version="1.1" xmlns="http://www.w3.org/2000/svg" xmlns:xlink="http://www.w3.org/1999/xlink" xml:space="preserve" style="fill-rule:evenodd;clip-rule:evenodd;stroke-linejoin:round;stroke-miterlimit:1.41421;">
    <g transform="matrix(0.75,0,0,0.75,-0,-0)">
        <g transform="matrix(1,0,0,1,-551,-1250)">
            <path d="M751,1250L551,1250L551,1400L751,1400L751,1250ZM747,1396L555,1396L555,1254L747,1254L747,1396Z" style="fill:rgb(0,189,244);fill-rule:nonzero;"/>
        </g>
        <g transform="matrix(1,0,0,1,-551,-1250)">
            <rect x="606" y="1360" width="90" height="4" style="fill:rgb(0,189,244);fill-rule:nonzero;"/>
        </g>
        <g transform="matrix(1,0,0,1,-551,-1250)">
            <rect x="606" y="1350" width="90" height="4" style="fill:rgb(0,189,244);fill-rule:nonzero;"/>
        </g>
        <g transform="matrix(1,0,0,1,-551,-1250)">
            <rect x="606" y="1340" width="90" height="4" style="fill:rgb(0,189,244);fill-rule:nonzero;"/>
        </g>
        <path d="M122.5,52.5C122.5,64.926 112.426,75 100,75C87.574,75 77.5,64.926 77.5,52.5C77.5,40.074 87.574,30 100,30C112.426,30 122.5,40.074 122.5,52.5ZM99.787,71.838C95.105,71.838 90.634,70.115 87.162,66.982C87.224,66.703 87.296,66.475 87.373,66.301C87.916,65.079 90.515,64.048 92.602,63.219C93.165,62.996 93.711,62.778 94.209,62.565C96.559,61.553 96.774,60.805 96.835,59.779C96.841,59.692 96.846,59.603 96.854,59.51C96.883,59.225 96.891,58.902 96.889,58.589L96.887,58.359L96.711,58.212C95.956,57.574 95.451,56.881 95.119,56.028C95.035,55.812 94.974,55.511 94.917,55.248C94.879,55.071 94.844,54.909 94.815,54.803L94.731,54.49L94.413,54.439C94.06,54.381 93.833,53.908 93.745,53.522L93.729,53.45L93.693,53.387C93.594,53.21 93.368,52.746 93.418,52.242C93.464,51.767 93.608,51.456 93.849,51.319L94.13,51.159L94.1,50.837C94.071,50.544 94.053,50.185 94.053,49.719C94.053,49.212 94.077,48.662 94.124,48.128L94.193,47.33L94.075,47.376L94.213,47.01L94.383,46.777L94.291,46.462C94.267,46.388 94.23,46.322 94.183,46.267C94.623,45.425 94.601,45.275 94.584,45.149C94.573,45.071 94.545,44.974 94.479,44.881L94.955,44.405L94.992,44.33C95.296,43.709 95.663,43.084 95.906,42.754C96.097,42.886 96.316,42.974 96.509,42.974L96.611,42.974L96.777,42.92C97.042,42.807 97.153,42.544 97.323,42.148C97.35,42.083 97.388,41.996 97.429,41.905L97.68,41.934L97.915,41.934L98.086,41.741C98.192,41.613 98.295,41.469 98.403,41.317C98.574,41.074 98.749,40.828 98.977,40.612C99.003,40.672 99.035,40.729 99.075,40.782L99.713,41.655L99.918,40.798C99.92,40.803 99.963,40.949 99.963,40.949L100.069,41.045C100.197,41.159 100.36,41.22 100.542,41.22C100.614,41.22 100.686,41.209 100.759,41.192C100.759,41.198 100.753,41.674 100.753,41.674L101.213,41.716C101.531,41.745 101.553,41.796 101.653,42.042C101.782,42.355 101.998,42.879 102.872,42.994C103.102,43.013 103.246,43.024 103.375,43.024C103.4,43.024 103.433,43.024 103.473,43.023C103.499,43.125 103.524,43.244 103.541,43.35L103.618,43.847L104.115,43.767C104.123,43.766 104.222,43.75 104.347,43.742C104.365,43.796 104.388,43.846 104.411,43.889L104.344,44.022L104.721,44.352L104.901,44.443L105.04,44.483L105.078,44.674L105.587,45.757L105.584,45.758C105.959,46.76 106.058,47.823 106.058,48.293C106.058,48.728 105.945,49.576 105.86,50.176L105.861,51.014L106.168,51.286C106.45,51.403 106.618,51.725 106.668,52.241C106.717,52.747 106.491,53.211 106.392,53.387L106.356,53.45L106.341,53.522C106.254,53.901 106.031,54.368 105.687,54.437L105.382,54.496L105.302,54.797C105.266,54.932 105.233,55.168 105.203,55.415C105.179,55.609 105.139,55.936 105.105,56.025C104.757,56.922 104.243,57.609 103.458,58.261L103.278,58.41L103.277,58.644C103.276,58.94 103.285,59.242 103.312,59.51C103.322,59.616 103.326,59.719 103.33,59.818C103.368,60.8 103.573,61.571 105.878,62.565C106.376,62.778 106.922,62.996 107.484,63.219C109.572,64.048 112.171,65.079 112.713,66.3C112.754,66.392 112.79,66.493 112.823,66.602C109.297,69.981 104.679,71.838 99.787,71.838Z" style="fill:rgb(0,189,244);"/>
    </g>
</svg>
