<?xml version="1.0" standalone="no"?>
<!DOCTYPE svg PUBLIC "-//W3C//DTD SVG 1.1//EN" "http://www.w3.org/Graphics/SVG/1.1/DTD/svg11.dtd">
<svg width="100%" height="100%" viewBox="0 0 200 150" version="1.1" xmlns="http://www.w3.org/2000/svg" xmlns:xlink="http://www.w3.org/1999/xlink" xml:space="preserve" style="fill-rule:evenodd;clip-rule:evenodd;stroke-linejoin:round;stroke-miterlimit:1.41421;">
    <g transform="matrix(1,0,0,1,-51,-1250)">
        <path d="M251,1250L51,1250L51,1400L251,1400L251,1250ZM247,1396L55,1396L55,1254L247,1254L247,1396Z" style="fill:rgb(0,189,244);fill-rule:nonzero;"/>
    </g>
    <g transform="matrix(1,0,0,1,-51,-1250)">
        <path d="M121,1275L81,1275L81,1315L121,1315L121,1275ZM117,1311L85,1311L85,1279L117,1279L117,1311Z" style="fill:rgb(0,189,244);fill-rule:nonzero;"/>
    </g>
    <g transform="matrix(1,0,0,1,-51,-1250)">
        <rect x="131" y="1275" width="90" height="4" style="fill:rgb(0,189,244);fill-rule:nonzero;"/>
    </g>
    <g transform="matrix(1,0,0,1,-51,-1250)">
        <rect x="131" y="1285" width="70" height="4" style="fill:rgb(0,189,244);fill-rule:nonzero;"/>
    </g>
    <g transform="matrix(1,0,0,1,-51,-1250)">
        <rect x="131" y="1295" width="90" height="4" style="fill:rgb(0,189,244);fill-rule:nonzero;"/>
    </g>
    <g transform="matrix(1,0,0,1,-51,-1250)">
        <rect x="131" y="1305" width="70" height="4" style="fill:rgb(0,189,244);fill-rule:nonzero;"/>
    </g>
    <g transform="matrix(1,0,0,1,-51,-1250)">
        <path d="M176.729,1370.09L172.824,1365.92L178.435,1364.84L181.192,1359.84L183.95,1364.84L189.559,1365.92L185.654,1370.09L186.364,1375.75L181.192,1373.33L176.021,1375.75L176.729,1370.09Z" style="fill:rgb(0,189,244);"/>
    </g>
    <g transform="matrix(1,0,0,1,-51,-1250)">
        <path d="M211.382,1373.33L206.211,1375.75L206.92,1370.09L203.015,1365.92L208.626,1364.84L211.382,1359.84L214.14,1364.84L219.75,1365.92L215.845,1370.09L216.554,1375.75L211.382,1373.33Z" style="fill:rgb(0,189,244);"/>
    </g>
    <path d="M200,150L0,150L0,85L200,85L200,150ZM160.383,106.732L156.652,113.5L149.061,114.958L154.345,120.599L153.386,128.268L160.383,124.985L167.381,128.268L166.421,120.599L171.705,114.958L164.115,113.5L160.383,106.732ZM43.349,113.5L50.939,114.958L45.655,120.599L46.615,128.268L39.617,124.985L32.62,128.268L33.579,120.599L28.295,114.958L35.886,113.5L39.617,106.732L43.349,113.5ZM103.732,113.5L111.322,114.958L106.038,120.599L106.998,128.268L100,124.985L93.003,128.268L93.962,120.599L88.678,114.958L96.269,113.5L100,106.732L103.732,113.5ZM73.541,113.5L81.131,114.958L75.847,120.599L76.807,128.268L69.809,124.985L62.812,128.268L63.771,120.599L58.487,114.958L66.078,113.5L69.809,106.732L73.541,113.5ZM130.191,106.732L126.46,113.5L118.869,114.958L124.153,120.599L123.194,128.268L130.191,124.985L137.189,128.268L136.229,120.599L141.513,114.958L133.923,113.5L130.191,106.732ZM160.383,112.946L161.488,114.949L162.167,116.181L163.549,116.446L165.796,116.878L164.232,118.548L163.27,119.575L163.444,120.971L163.729,123.241L161.657,122.269L160.383,121.672L159.109,122.269L157.038,123.241L157.322,120.971L157.496,119.575L156.534,118.548L154.97,116.878L157.218,116.446L158.6,116.181L159.279,114.948L160.383,112.946ZM130.191,112.946L131.296,114.949L131.975,116.181L133.357,116.446L135.604,116.878L134.04,118.548L133.078,119.575L133.252,120.971L133.537,123.241L131.465,122.269L130.191,121.672L128.917,122.269L126.846,123.241L127.13,120.971L127.304,119.575L126.342,118.548L124.778,116.878L127.026,116.446L128.408,116.181L129.087,114.948L130.191,112.946Z" style="fill:rgb(0,189,244);"/>
</svg>
