<?xml version="1.0" standalone="no"?><!DOCTYPE svg PUBLIC "-//W3C//DTD SVG 1.1//EN" "http://www.w3.org/Graphics/SVG/1.1/DTD/svg11.dtd"><svg width="100%" height="100%" viewBox="0 0 23 25" version="1.1" xmlns="http://www.w3.org/2000/svg" xmlns:xlink="http://www.w3.org/1999/xlink" xml:space="preserve" style="fill-rule:evenodd;clip-rule:evenodd;stroke-linecap:round;stroke-linejoin:round;stroke-miterlimit:10;"><path d="M11.274,3.769l-0.012,0c-1.868,1.873 -7.493,3.39 -7.493,3.39l0,8.109c0,0 1.875,3.124 7.5,5.751c5.625,-2.627 7.5,-5.751 7.5,-5.751l0,-8.109c0,0 -5.625,-1.517 -7.495,-3.39Z" style="fill:none;stroke-width:0.3px;stroke:#00bdf4;"/><path d="M3.769,11.267l15,0" style="fill:none;stroke-width:0.3px;stroke-linecap:butt;stroke:#00bdf4;"/><path d="M11.269,11.267l0,9.751" style="fill:none;stroke-width:0.3px;stroke:#00bdf4;"/><path d="M15.019,11.267l0,7.603" style="fill:none;stroke-width:0.3px;stroke:#00bdf4;"/><path d="M7.519,11.267l0,7.603" style="fill:none;stroke-width:0.3px;stroke:#00bdf4;"/><path d="M11.269,5.883l0.531,1.634l1.719,0l-1.391,0.851l0.531,1.557l-1.39,-1.051l-1.391,0.992l0.531,-1.487l-1.39,-0.862l1.719,0l0.531,-1.634Z" style="fill:none;stroke-width:0.3px;stroke:#00bdf4;"/></svg>