<?xml version="1.0" encoding="UTF-8" standalone="no"?>
<!DOCTYPE svg PUBLIC "-//W3C//DTD SVG 1.1//EN" "http://www.w3.org/Graphics/SVG/1.1/DTD/svg11.dtd">
<svg width="100%" height="100%" viewBox="0 0 624 229" version="1.1" xmlns="http://www.w3.org/2000/svg" xmlns:xlink="http://www.w3.org/1999/xlink" xml:space="preserve" style="fill-rule:evenodd;clip-rule:evenodd;stroke-linejoin:round;stroke-miterlimit:1.41421;">
    <path d="M319.8,164.4L319.8,80.8L339.9,79.1L342.1,89.5C347.8,81.2 356.2,77 367.5,77L367.5,97C359.4,97 353.3,99.7 349.2,105.2C345.1,110.7 343.1,118.4 343.1,128.4L343.1,164.3L319.8,164.4ZM376.3,54.2C376.3,50.4 377.6,47.3 380.3,44.8C383,42.3 386.1,41.1 389.7,41.1C393.3,41.1 396.4,42.3 399.2,44.9C402,47.4 403.4,50.5 403.4,54.2C403.4,57.9 402,61 399.3,63.6C396.6,66.2 393.4,67.5 389.7,67.5C385.9,67.5 382.7,66.2 380.2,63.7C377.6,61.2 376.3,58 376.3,54.2ZM378.1,164.4L378.1,79.1L401.3,79.1L401.3,164.3L378.1,164.4ZM412.4,141.4L412.4,44.5L435.6,40.5L435.6,139.1C435.6,141.7 436.1,143.5 437,144.6C437.9,145.7 439.6,146.3 441.9,146.3L440.1,166.4C431,166.4 424.1,164.5 419.4,160.7C414.7,156.9 412.4,150.5 412.4,141.4ZM451.5,164.4L451.5,44.5L474.7,40.5L474.7,85.8C480.8,79.9 488.3,76.9 497.3,76.9C509.2,76.9 518.8,81.4 526.1,90.4C533.3,99.4 537,109.9 537,121.9C537,133.9 533.3,144.4 526,153.2C518.6,162.1 509.1,166.5 497.4,166.5C487.9,166.5 480.1,163.3 473.8,156.8L472.3,164.3L451.5,164.4ZM494.1,146.5C500.1,146.5 504.7,144.1 508,139.3C511.3,134.5 512.8,128.7 512.8,121.9C512.8,115.2 511.2,109.4 508,104.4C504.8,99.4 500.2,97 494,97C488.2,97 483.2,99.3 479.1,103.8C475,108.3 472.9,114.4 472.9,121.9C472.9,129.1 474.9,135.1 478.8,139.6C483,144.2 488,146.5 494.1,146.5Z" style="fill-rule:nonzero;"/>
    <path d="M273.5,192.6C273.2,192.6 273,192.5 272.8,192.4C272.6,192.2 272.5,192.1 272.4,191.9L269.8,187.3L269.8,196.5C269.8,196.7 269.7,196.9 269.6,197C269.5,197.1 269.3,197.2 269.1,197.2L265.5,197.2C265.3,197.2 265.1,197.1 265,197C264.9,196.9 264.8,196.7 264.8,196.5L264.8,178.5C264.8,178.3 264.9,178.1 265,178C265.1,177.9 265.3,177.8 265.5,177.8L268.7,177.8C269.1,177.8 269.3,177.9 269.5,178.1C269.7,178.3 269.8,178.5 269.9,178.5L274.4,186.2L278.9,178.5C279,178.4 279.1,178.3 279.3,178.1C279.5,177.9 279.8,177.8 280.1,177.8L283.3,177.8C283.5,177.8 283.7,177.9 283.8,178C283.9,178.1 284,178.3 284,178.5L284,196.5C284,196.7 283.9,196.9 283.8,197C283.7,197.1 283.5,197.2 283.3,197.2L279.7,197.2C279.5,197.2 279.3,197.1 279.2,197C279.1,196.9 279,196.7 279,196.5L279,187.3L276.4,191.9C276.3,192 276.2,192.2 276,192.4C275.8,192.6 275.6,192.6 275.3,192.6L273.5,192.6Z" style="fill-rule:nonzero;"/>
    <path d="M343.8,192.8C344,192.8 344.2,192.9 344.3,193C344.4,193.1 344.5,193.3 344.5,193.5L344.5,196.4C344.5,196.6 344.4,196.8 344.3,196.9C344.2,197 344,197.1 343.8,197.1L330.6,197.1C330.4,197.1 330.2,197 330.1,196.9C330,196.8 329.9,196.6 329.9,196.4L329.9,178.4C329.9,178.2 330,178 330.1,177.9C330.2,177.8 330.4,177.7 330.6,177.7L343.6,177.7C343.8,177.7 344,177.8 344.1,177.9C344.2,178 344.3,178.2 344.3,178.4L344.3,181.4C344.3,181.6 344.2,181.8 344.1,181.9C344,182 343.8,182.1 343.6,182.1L335,182.1L335,185.1L343,185.1C343.2,185.1 343.4,185.2 343.5,185.3C343.6,185.4 343.7,185.6 343.7,185.8L343.7,188.8C343.7,189 343.6,189.2 343.5,189.3C343.4,189.4 343.2,189.5 343,189.5L335,189.5L335,192.6L343.8,192.6L343.8,192.8Z" style="fill-rule:nonzero;"/>
    <path d="M397.6,177.8C398.9,177.8 400.1,178 401.1,178.4C402.2,178.8 403.1,179.3 403.8,180C404.6,180.7 405.2,181.5 405.6,182.5C406,183.5 406.3,184.5 406.3,185.6L406.3,189.6C406.2,190.8 406,191.8 405.6,192.7C405.2,193.6 404.6,194.5 403.8,195.1C403,195.8 402.2,196.3 401.1,196.7C400.1,197.1 398.9,197.3 397.6,197.3L390.1,197.3C389.9,197.3 389.7,197.2 389.6,197.1C389.5,197 389.4,196.8 389.4,196.6L389.4,178.6C389.4,178.4 389.5,178.2 389.6,178.1C389.7,178 389.9,177.9 390.1,177.9L397.6,177.9L397.6,177.8ZM401.3,185.4C401.2,183.3 399.9,182.2 397.5,182.2L394.7,182.2L394.7,192.8L397.7,192.8C400,192.8 401.3,191.7 401.3,189.6C401.3,189.2 401.3,188.8 401.3,188.5L401.3,186.5C401.3,186.2 401.3,185.8 401.3,185.4Z" style="fill-rule:nonzero;"/>
    <path d="M452.2,197.3C452,197.3 451.8,197.2 451.7,197.1C451.6,197 451.5,196.8 451.5,196.6L451.5,178.6C451.5,178.4 451.6,178.2 451.7,178.1C451.8,178 452,177.9 452.2,177.9L455.8,177.9C456,177.9 456.2,178 456.3,178.1C456.4,178.2 456.5,178.4 456.5,178.6L456.5,196.6C456.5,196.8 456.4,197 456.3,197.1C456.2,197.2 456,197.3 455.8,197.3L452.2,197.3Z" style="fill-rule:nonzero;"/>
    <path d="M512.6,177.8C513,177.8 513.3,177.9 513.4,178.1C513.6,178.3 513.7,178.5 513.8,178.7L519.9,196.3C520,196.5 520,196.6 520,196.7C520,196.9 519.9,197 519.8,197.1C519.7,197.2 519.5,197.3 519.4,197.3L515.9,197.3C515.5,197.3 515.3,197.2 515.1,197.1C514.9,196.9 514.8,196.8 514.8,196.6L514,194.3L506.6,194.3L505.8,196.6C505.8,196.7 505.7,196.9 505.5,197.1C505.3,197.3 505.1,197.3 504.7,197.3L501.2,197.3C501,197.3 500.9,197.2 500.8,197.1C500.7,197 500.6,196.8 500.6,196.7C500.6,196.6 500.6,196.5 500.7,196.3L506.8,178.7C506.9,178.5 507,178.3 507.2,178.1C507.4,177.9 507.7,177.8 508,177.8L512.6,177.8ZM508.1,189.9L512.6,189.9L510.3,183.2L508.1,189.9Z" style="fill-rule:nonzero;"/>
    <path d="M287.9,79.1L306.6,79.1L306.6,94.1L287.9,94.1L287.9,136.6C287.9,140.2 288.5,142.7 289.7,144.2C290.9,145.7 293,146.5 296,146.5C299.8,146.5 303.9,145.8 308.2,144.3L312.2,163.7C306.3,165.6 300.6,166.5 295.2,166.5C285.7,166.5 278.3,164.2 272.9,159.5C267.5,154.8 264.8,147.7 264.8,138.3L264.8,103.6L264.9,103.6L264.9,64.3L264.8,64.3L264.8,60.5L288,56.2L287.9,79.1ZM568.7,164.3L538.3,79.1L562.9,79.1L573.6,112.9C575.3,118.6 577.8,127.8 581.1,140.5C584.2,128.2 586.7,119 588.6,112.8L599.1,79.2L623.3,79.2L587.4,182.2C585.1,188.9 581.4,194.1 576.5,197.7C571.6,201.4 566.2,203.2 560.3,203.2C552.6,203.2 545.4,201.3 538.7,197.3L545.4,179.6C550.1,181.9 554,183.1 557.3,183.1C559.8,183.1 561.6,182.3 563,180.8C564.3,179.2 565.6,176.7 566.7,173.3L569.2,165.9L568.7,164.3Z" style="fill-rule:nonzero;"/>
    <g transform="matrix(1,0,0,1,-8.35,-3.5)">
        <path d="M122.85,232.5C59.75,232.5 8.35,181.1 8.35,118C8.35,54.9 59.75,3.5 122.85,3.5C185.95,3.5 237.35,54.9 237.35,118C237.35,181.1 185.95,232.5 122.85,232.5ZM78.95,211.2C80.35,210.3 81.25,209.6 81.25,209.6L82.65,208C83.65,206.8 84.25,205.3 84.15,203.7C84.05,202.8 84.05,201.7 83.95,201C83.55,197.1 73.85,182.5 69.95,177.9C66.05,173.3 60.05,157.8 60.05,157.8L82.55,154.9C82.55,154.9 88.95,166.1 89.65,167.4C94.35,175.1 101.05,180.6 101.05,180.6C101.05,180.6 103.35,182.6 103.95,193.1C103.95,193.1 105.75,206.6 106.25,219.6C107.35,219.8 108.45,219.9 109.55,220.1C111.45,204 112.65,187.8 111.95,187.1C111.05,186 105.55,181.3 103.85,180.9C103.45,180.8 105.55,180.1 108.05,179.8C109.95,179.6 115.85,179.4 115.85,179.4C121.85,179 123.65,175.6 123.95,175.2C124.45,174.5 124.45,174.2 124.95,173.2C130.25,159.8 128.25,148.5 128.25,148.5C128.25,148.5 148.75,145.7 162.95,139.7C187.65,129.3 165.85,127.8 165.85,127.8C165.85,127.8 175.85,126 180.05,129.8C181.95,131.5 179.85,140.3 175.95,157.3C174.45,164 172.55,169.4 180.05,173.5C187.95,177.8 196.35,178.9 204.85,180.1C217.95,162.8 225.75,141.3 225.75,117.9C225.75,61.1 179.55,14.9 122.75,14.9C65.95,14.9 19.75,61.1 19.75,117.9C19.85,159.1 44.05,194.6 78.95,211.2ZM118.95,166.7C117.65,168.2 118.05,168 115.45,168.4C112.95,168.8 112.45,168.2 110.45,167.6C108.25,167 106.05,167.9 103.45,168C100.95,168.1 99.25,166.3 99.25,165.7C99.25,165.2 100.75,164.1 102.35,163.8C102.35,163.8 104.75,163.4 105.85,163.4C106.95,163.4 110.15,163 112.05,162.6C113.95,162.2 121.45,161.9 121.45,161.9C121.45,161.9 120.25,165.2 118.95,166.7ZM120.95,159.8C118.55,159.7 110.05,158.9 110.05,158.9L103.65,159.6C103.65,159.6 97.85,161.1 96.25,161.9C94.65,162.7 93.55,163.3 92.55,162.4C92.05,161.9 95.95,159.4 97.95,158.2C99.95,157 101.55,156.9 102.75,157.1C103.95,157.4 104.65,158 106.15,157.2C107.65,156.4 108.05,155.7 110.15,155.7C112.25,155.7 119.65,156.8 121.25,156.8C122.85,156.8 125.65,156.5 125.65,157.3C125.75,158.1 123.35,160 120.95,159.8ZM91.35,151.3C90.05,151.3 90.95,148 91.25,147.4C91.55,146.9 92.45,145.8 91.95,145.3C91.45,144.8 92.75,143.6 93.65,143.7C94.55,143.8 98.55,146.1 99.35,146.1C100.15,146.1 105.65,143.9 106.45,143.1C107.25,142.3 109.65,141 111.05,141.2C112.35,141.5 110.75,142.5 110.25,143.9C109.75,145.2 112.25,144 113.85,143.4C115.45,142.7 113.75,139.8 112.65,138.7C111.55,137.6 110.35,133.6 111.15,134.3C111.95,135 116.15,139.5 116.95,140.2C118.45,141.5 120.95,146.5 120.45,147C119.95,147.5 118.55,147.6 117.95,150.6C117.65,152.1 115.55,153.1 114.35,152.6C113.15,152.1 110.35,153.5 107.35,153C104.45,152.5 103.05,149.4 103.05,149.4C103.05,149.4 101.05,148.5 98.95,148.1C96.85,147.7 96.25,145.1 95.75,145.1C95.65,145.1 92.75,151.3 91.35,151.3ZM83.95,129C82.65,128.5 81.35,127.6 81.35,127.6C81.35,127.6 86.15,128.2 87.75,127.8C89.35,127.4 91.25,127.2 91.65,127.4C92.05,127.5 93.35,128.9 91.15,129.2C88.75,129.4 85.15,129.4 83.95,129ZM45.25,109.3C44.25,108 43.15,105.3 50.85,102.3C58.65,99.4 119.45,86.9 128.05,85.1C136.65,83.4 165.55,79.5 169.05,78.9C181.95,76.7 183.45,80.8 183.95,84C185.45,97.8 169.25,112.8 168.05,113.6C166.85,114.4 169.45,105.1 167.15,104.5C161.95,103.1 159.75,110.5 159.25,112.3C158.75,114 158.35,116.7 157.35,118.2C156.45,119.7 152.15,119.7 152.15,119.7C152.15,119.7 149.75,105.5 148.55,103.6C147.35,101.7 143.45,96.6 142.35,95.6C141.25,94.5 137.65,92.4 135.75,92.1C133.85,91.8 128.75,92.9 127.45,95.3C126.15,97.7 125.95,102.1 125.35,103.2C124.65,104.3 122.45,107 125.75,107C129.15,107 130.35,107.1 131.95,108.1C133.55,109 133.05,110.8 133.05,110.8C133.05,110.8 128.65,109.9 127.55,110.1C126.45,110.4 125.85,110.9 125.15,112.1C124.65,112.9 124.75,114.4 126.25,114.5C127.75,114.6 130.45,114.5 131.65,115.2C132.85,115.9 133.35,116.8 133.75,117.3C134.15,117.8 127.85,117.8 127.45,117.8C127.05,117.8 124.35,117.8 123.15,117.9C121.95,118 118.15,119 116.95,119.5C115.75,120 113.75,122.9 112.65,122.7C111.55,122.6 107.95,122.3 107.55,121.4C107.15,120.5 106.65,118.7 106.05,117.8C105.55,116.9 104.55,115.9 103.15,115.9C101.65,115.9 99.35,116 98.85,114.7C98.35,113.4 98.35,112.3 97.15,111.2C95.95,110.1 93.55,116.3 94.05,116.7C94.55,117.1 95.95,119.1 96.15,120.3C96.45,121.5 96.75,123.3 95.85,123.7C92.45,124.9 93.95,123.3 90.25,123.3C87.95,123.3 84.25,123.7 82.35,125C81.55,125.5 79.15,125 79.15,125C79.55,124.5 81.95,120.6 82.65,120.2C83.35,119.8 83.85,118.9 83.35,117.1C82.85,115.4 83.35,114.2 81.45,115C79.55,115.8 77.95,117 76.85,117.8C75.75,118.6 75.75,120.1 74.45,119.3C73.15,118.5 70.45,118.2 70.45,118.2C70.45,118.2 50.45,115.5 45.25,109.3ZM132.25,120.3C130.25,121.4 126.85,122.6 125.55,122.6C124.25,122.6 122.65,122.2 122.65,122.2C122.65,122.2 127.35,121.1 128.65,120.2C129.95,119.3 131.75,118.5 132.15,118.5C132.45,118.4 134.25,119.2 132.25,120.3ZM74.45,68.7C76.55,62 78.45,57.9 78.75,55.4C79.05,52.9 79.45,44.3 80.85,41.8C85.35,34.1 91.85,35.5 96.95,35.5C102.55,35.4 132.35,36.8 136.35,38.4C140.35,40 150.35,44.2 155.15,59.6C155.85,61.7 158.95,77.6 158.95,77.6C158.95,77.6 126.65,81.6 107.35,85.4C91.55,88.5 74.25,92.9 74.25,92.9L69.05,94.2C68.95,93.3 72.35,75.4 74.45,68.7Z"/>
    </g>
</svg>
